PathFileType	4	(X/Y/Z)	Patient4_TMGait_0pt3_01_right_04.trc.trc
DataRate	CameraRate	NumFrames	NumMarkers	Units	OrigDataRate	OrigDataStartFrame	OrigNumFrames
52.830188679245	52.830188679245	4	33	mm	52.830188679245	36	       141
Frame#	Time	Sacral			L.Shoulder			Chest			R.Shoulder			Neck			R.ASIS			L.ASIS			R.Thigh.Superior			R.Thigh.Lateral			R.Thigh.Inferior			R.Patella			L.Thigh.Superior			L.Thigh.Lateral			L.Thigh.Inferior			L.Patella			L.Shank.Superior			L.Shank.Lateral			L.Shank.Inferior			R.Shank.Superior			R.Shank.Lateral			R.Shank.Inferior			R.Heel			R.Midfoot.Superior			R.Midfoot.Lateral			R.Toe			L.Heel			L.Midfoot.Lateral			L.Midfoot.Superior			L.Toe			L.Elbow			L.Wrist			R.Elbow			R.Wrist			
		X1	Y1	Z1	X2	Y2	Z2	X3	Y3	Z3	X4	Y4	Z4	X5	Y5	Z5	X6	Y6	Z6	X7	Y7	Z7	X8	Y8	Z8	X9	Y9	Z9	X10	Y10	Z10	X11	Y11	Z11	X12	Y12	Z12	X13	Y13	Z13	X14	Y14	Z14	X15	Y15	Z15	X16	Y16	Z16	X17	Y17	Z17	X18	Y18	Z18	X19	Y19	Z19	X20	Y20	Z20	X21	Y21	Z21	X22	Y22	Z22	X23	Y23	Z23	X24	Y24	Z24	X25	Y25	Z25	X26	Y26	Z26	X27	Y27	Z27	X28	Y28	Z28	X29	Y29	Z29	X30	Y30	Z30	X31	Y31	Z31	X32	Y32	Z32	X33	Y33	Z33	

36	6.552500000000	831.496926633377	998.574804697845	482.924384865344	1037.926553200037	1435.318464623824	338.247460755526	1105.620472666995	1363.083576591669	514.749716668110	985.972513464166	1432.527742533559	668.605897119650	994.073292226512	1492.534531989798	492.570717835162	1044.243860597078	944.237456847435	635.116167386127	1067.450881030690	955.795561599540	361.148142056378	1102.878411152237	749.442645830817	611.807696561054	1023.612628183093	634.874726674129	663.190067025983	1112.501205323353	589.366351438595	591.193314781638	1118.883626483473	503.978014784711	598.973198642742	1073.442145515123	724.712565913533	387.104261749114	968.778677053434	622.909304235249	315.887732257425	1032.332882093207	529.977231251181	381.768448716414	1015.498707424999	452.169720575797	382.617089298309	955.977124969804	395.887875350105	371.818208492719	827.195990951388	331.605534740046	316.119451769614	827.277729094987	204.338463451478	377.124455349519	1100.387252514909	413.338603085798	605.451049348488	1033.448476236544	302.617707007098	659.346234287899	1094.493473974825	212.968089508173	604.703893637377	979.502985354741	42.648111272329	564.041987891542	1147.513111823393	99.419462982923	611.369027266015	1058.435710410418	36.327324469265	643.300587606034	1265.790761010239	51.449573380690	644.990943273172	647.397976100481	100.437794712656	407.035799469948	719.275981904178	70.894274106197	331.709221724867	816.399203204789	107.050435989964	358.899905957534	921.957149374739	35.898420185145	338.494580984601	1130.627081193346	1113.558773707857	191.886617102720	1387.408092434309	1089.639796623687	215.394103229195	877.315850150420	1098.556102436171	770.799967401838	962.227379766579	853.208766606842	807.706970356486	
37	6.571428571429	833.290358896348	998.877524471370	488.150360502933	1037.438000823486	1436.388484804777	342.387807010616	1106.489030668879	1364.158493051968	518.442867590280	987.622221317765	1433.031798927610	673.124909563673	994.360941284163	1493.318270696141	497.022941308239	1046.810262609894	945.225243045771	639.508997499686	1068.900162489036	956.524843270901	365.553060127344	1103.746323537299	749.024586951334	615.843241926008	1023.372868101204	634.846338222792	666.430644055127	1111.718912112003	588.786493917306	594.257750368174	1117.153702111307	503.321205110615	601.235707164144	1079.692758903303	726.484458267729	391.270316419480	978.466033764211	622.437224314122	319.602218264737	1044.905264593807	530.435189177280	385.142732662756	1028.953056716434	451.101712805641	384.716316335424	966.730106990159	395.619431690555	373.886302611768	835.406676803123	336.666004780515	318.350877439518	831.493888150133	208.689980524911	377.367878058757	1098.034217739325	412.815570465841	607.195122395390	1030.453782377661	302.317929049971	660.499968122906	1090.415411837043	212.495230826455	605.226169043302	974.086743705717	42.666759582506	564.171091861375	1142.223699148165	99.221882923428	611.417129027028	1052.995663445748	36.386765803693	643.425968942083	1260.463606068027	51.000339406112	645.022903822910	648.040239404146	113.694116096122	406.911597485954	717.689829557106	79.678331909460	331.659274580433	816.586523300904	109.893503710160	358.416531484276	916.442198855142	35.015034470004	338.611464090203	1122.932802353070	1111.196859062626	197.208963854603	1379.149556928770	1077.449339928651	219.013791522992	888.461796968361	1096.980847396686	779.672211655962	985.559191880582	856.439973303596	817.829934734895	
38	6.590357142857	834.853711800750	998.962147479964	493.370721405277	1036.590095845673	1437.198417082463	346.255378412344	1107.108968167535	1365.095271644558	521.846169011017	989.139124221850	1433.460562827437	677.402875077062	994.439223531440	1493.933328824963	501.211459409047	1049.274704924477	946.044287680746	643.755032099669	1070.081228144843	957.116310749798	369.770863576553	1104.628058076696	748.564895481315	619.432420866137	1023.384883579991	634.692373321567	669.444399651129	1111.050787991550	588.165003386258	596.923561929099	1115.598807288340	502.592434341994	603.128598724926	1086.199329035243	728.446221210526	395.433404330077	988.850267518358	622.052905690065	323.209970674948	1058.160332855872	531.224488427057	388.671418253166	1043.210658300166	450.413052892985	387.003189560510	978.460180307533	395.599472746983	376.035360049979	844.826309772586	342.131480386755	320.583483432486	836.688650703147	213.636960216157	377.669503896715	1095.843301488801	412.203675281262	608.645743023720	1027.713885681613	301.988694188098	661.571550984909	1086.390839623563	211.947568973637	605.543087060101	968.625451887426	42.699490266017	564.265592578901	1136.880346565857	98.997883617082	611.393729943158	1047.504851248432	36.457538533837	643.513783786400	1255.092393839173	50.449364502849	645.065295949622	650.017192859289	128.352715620641	406.902403253245	717.006710314214	89.724307314927	331.691280105352	817.451508887035	113.321267782460	358.048966852123	910.905072129922	33.959135183033	338.748209906324	1114.562640587403	1108.528672249288	202.643643213114	1369.526446228176	1063.465327611633	222.623704771590	900.087577778574	1095.585550603845	788.475803910270	1009.547120131513	860.651455584479	827.312945856426	
39	6.609285714286	836.183603773257	998.859983171209	498.597031114929	1035.390140228700	1437.756399612191	349.850537970726	1107.489258611442	1365.903467864879	524.951471196590	990.541124497060	1433.837451396697	681.429645862272	994.317947579683	1494.392665711006	505.131913057589	1051.640440262999	946.691363406376	647.808584140318	1070.965616759475	957.605414418944	373.760870720736	1105.553761725894	748.094136315220	622.562559440011	1023.688971049727	634.441555531066	672.229253180534	1110.561501409279	587.529923430156	599.209507597636	1114.297212380303	501.796320072118	604.692438060444	1092.834365886805	730.637643469701	399.572601127383	999.728888878404	621.865393609742	326.726308895545	1071.842628446685	532.441635663148	392.367426866273	1058.026873838729	450.209728078827	389.509068331531	990.961174994665	395.917713731830	378.296205523785	855.270322916338	347.992665676961	322.841606522273	842.788093239776	219.167179412946	378.096091476581	1093.860903128909	411.513482677354	609.836712537817	1025.232963929729	301.650071400647	662.595264883054	1082.425051170227	211.335460701890	605.691805269553	963.110402027649	42.749016500001	564.332820711258	1131.479388025088	98.755366753832	611.311959957594	1041.959877585899	36.534730313967	643.570732779766	1249.673933937014	49.806471386311	645.114136254461	653.359392786361	144.152005191217	407.097536021697	717.312437777504	100.916803750099	331.869956990121	819.015269580989	117.399642941694	357.854053057342	905.494199849578	32.779380788994	338.885532073087	1105.676329668115	1105.614413636076	208.236512965748	1358.411064381348	1047.671836263941	226.231453865953	912.078547111114	1094.415204141511	797.039064594262	1034.035045346494	865.973270574369	836.013572168187	
